<?xml version="1.0" encoding="utf-8"?>
<!-- Generator: Adobe Illustrator 26.5.1, SVG Export Plug-In . SVG Version: 6.00 Build 0)  -->
<svg version="1.1" id="Layer_1" xmlns="http://www.w3.org/2000/svg" xmlns:xlink="http://www.w3.org/1999/xlink" x="0px" y="0px"
	 viewBox="0 0 539.1 137.2" style="enable-background:new 0 0 539.1 137.2;" xml:space="preserve">
<style type="text/css">
	.st0{fill:#FFFFFF;}
	.st1{fill:none;stroke:#47BD9D;stroke-width:1.1503;stroke-miterlimit:10;}
</style>
<g>
	<g>
		<g>
			<g>
				<path class="st0" d="M198.5,80.6l-0.9,2.2c-1.8,0.9-3.7,1.5-5.5,2s-3.7,0.7-5.7,0.7c-2.4,0-4.6-0.2-6.8-0.9
					c-2.2-0.7-4-1.5-5.5-2.6s-2.9-2.4-3.7-3.7s-1.8-2.9-2.2-4.6c-0.4-1.8-0.9-3.5-0.9-5.5c0-5.1,1.8-9.3,5.3-12.6s8.4-4.9,14.3-4.9
					c1.5,0,2.9,0,4,0.2c1.3,0.2,2.6,0.4,4.4,0.9c1.8,0.4,2.9,0.7,3.3,0.9c-0.4,0.9-0.7,1.8-0.9,2.6c-0.2,1.3-0.4,2.9-0.4,4.6h-1.5
					V57c-0.2-1.5-1.1-2.6-2.6-3.5c-1.5-0.7-3.7-1.1-6.8-1.1c-2.2,0-4.2,0.2-5.7,0.9c-1.5,0.4-2.9,1.3-4.2,2.6
					c-1.1,1.1-2.2,2.6-2.9,4.4s-1.1,4-1.1,6.8c0,4.9,1.5,8.6,4.4,11.5s6.8,4.4,11.7,4.4c2.2,0,4.2-0.2,6-0.9c1.3-0.4,2.4-1.1,3.7-2
					L198.5,80.6z"/>
			</g>
		</g>
		<g>
			<g>
				<path class="st0" d="M199.9,74c0-3.5,1.1-6.4,3.3-8.6c2.2-2.2,5.1-3.3,8.6-3.3c3.3,0,6,1.1,8.2,3.1c2.2,2,3.1,4.9,3.1,8.2
					c0,2.2-0.4,4.4-1.5,6.4s-2.6,3.3-4.6,4.4s-4.2,1.5-6.4,1.5c-1.8,0-3.3-0.2-4.6-0.9c-1.3-0.7-2.2-1.3-3.1-2.4
					c-0.9-0.9-1.3-2-1.8-2.9C200.1,77.7,199.9,75.9,199.9,74z M204.3,72.2c0,2,0.2,4,0.9,6s1.5,3.5,2.9,4.4c1.3,0.9,2.6,1.3,4,1.3
					c1.8,0,3.3-0.7,4.6-2.2s1.8-3.7,1.8-6.6c0-2.4-0.4-4.6-1.1-6.4c-0.7-1.8-1.8-3.1-2.9-4c-1.1-0.7-2.4-1.1-3.7-1.1
					c-2,0-3.5,0.7-4.6,2.2C204.9,67.3,204.3,69.1,204.3,72.2z"/>
			</g>
		</g>
		<g>
			<g>
				<path class="st0" d="M223.2,84.8v-1.3c1.8,0,2.6,0,2.9,0c0.2,0,0.4-0.2,0.7-0.2c0.2,0,0.2-0.2,0.2-0.4c0.2-0.4,0.2-0.9,0.2-1.8
					c0-4.2,0.2-6.4,0.2-6.6v-2.9c0-1.3,0-2.6,0-4c0-0.9,0-1.5-0.2-1.8c0-0.2-0.2-0.2-0.4-0.4c-0.2,0-1.3-0.2-3.1,0V64
					c3.1-0.4,5.5-1.1,7.1-1.8c0.2-0.2,0.4-0.2,0.7-0.2c0,0,0.2,0,0.2,0.2c0,0,0,0.2,0,0.4c0,0,0,0.2,0,0.4c0,0.9-0.2,2.4-0.2,4.4
					c0.7-0.9,1.3-1.5,2-2.4s1.1-1.3,1.3-1.5c0.4-0.4,1.1-0.7,1.5-0.9c0.7-0.2,1.3-0.4,2-0.4s1.3,0.2,2,0.4l0.2,0.4
					c-0.2,2.2-0.4,4-0.4,5.5h-1.3c-0.4-0.7-0.9-1.3-1.3-1.8c-0.4-0.4-1.1-0.4-1.8-0.4c-1.3,0-2.2,0.4-3.1,1.5
					c-0.9,1.1-1.3,2.4-1.3,4.4v2.4c0,1.1,0,2.9,0.2,5.7c0,0.9,0,1.5,0.2,1.8c0,0.2,0.2,0.4,0.2,0.7c0,0.2,0.2,0.2,0.4,0.2
					c0.4,0.2,1.8,0.2,3.7,0.4V85c-2.9,0-5.1-0.2-7.1-0.2C227,84.8,225,84.8,223.2,84.8z"/>
			</g>
		</g>
		<g>
			<g>
				<path class="st0" d="M242,84.8v-1.3h2.2c0.4,0,0.7,0,0.7-0.2c0.2,0,0.2-0.2,0.4-0.4c0.2-0.2,0.2-0.9,0.4-1.8
					c0-0.2,0-2.4,0.2-6.8v-2.9c0-1.3,0-2.6,0-4.2c0-0.9-0.2-1.5-0.2-1.8c0-0.2-0.2-0.2-0.4-0.4c-0.2,0-1.3-0.2-3.1,0v-1.3
					c3.1-0.4,5.5-1.1,7.1-1.8c0.2-0.2,0.4-0.2,0.7-0.2c0.2,0,0.2,0,0.2,0.2c0,0,0,0.2,0,0.4c0,0,0,0.2,0,0.4c0,0.7,0,1.8-0.2,3.5
					l4.4-3.7c1.3-0.4,2.4-0.7,3.7-0.7s2.4,0.2,3.7,0.9c1.1,0.4,2,1.1,2.6,2c0.7,0.9,0.9,1.8,1.1,3.1c0,0.7,0.2,2.6,0.2,6V78
					c0,2,0,3.5,0.2,4.2c0,0.4,0.2,0.9,0.4,0.9c0.2,0.2,0.4,0.2,0.7,0.4h2.4v1.3c-1.5,0-2.9-0.2-4-0.2c-0.9,0-2.4,0-4.4,0.2
					c0.2-4,0.4-6.4,0.4-7.5v-4c0-2.4,0-4.2-0.2-4.9c-0.2-1.1-0.9-2-1.8-2.6c-0.9-0.7-2.2-0.9-3.5-0.9c-1.1,0-2.2,0.2-3.3,0.9
					c-1.1,0.7-1.8,1.1-2.2,2c-0.4,0.7-0.7,2-0.7,3.7v2.9c0,4.2,0.2,6.4,0.2,6.6c0,0.9,0.2,1.3,0.2,1.8c0,0.2,0.2,0.2,0.2,0.4
					c0.2,0,0.2,0.2,0.7,0.2c0,0,0.9,0,2.6,0v1.3c-2,0-3.7-0.2-5.3-0.2C247.1,84.8,244.9,84.8,242,84.8z"/>
			</g>
		</g>
		<g>
			<g>
				<path class="st0" d="M289.4,81.2l-0.7,1.8c-1.1,0.7-2,1.1-2.4,1.3c-0.7,0.4-1.5,0.7-2.6,0.9c-0.9,0.2-2,0.4-3.1,0.4
					c-2,0-4-0.4-5.7-1.3c-1.8-0.9-3.1-2.2-4-4s-1.3-3.7-1.3-6.2c0-1.8,0.2-3.5,0.7-4.9c0.4-1.5,1.1-2.6,1.8-3.3
					c0.4-0.4,1.1-1.1,2.2-1.8c0.9-0.7,2-1.1,2.9-1.5c1.3-0.4,2.6-0.9,4-0.9c1.8,0,3.3,0.4,4.9,1.1c1.3,0.9,2.4,2,3.1,3.3
					s1.1,2.9,1.1,4.6c0,0.4,0,0.9,0,1.5c-1.1,0.2-2.2,0.4-3.1,0.4c-1.8,0.2-3.3,0.2-5.1,0.2h-7.7c0,2.2,0.4,4.2,1.1,5.5
					s1.8,2.4,3.1,3.1c1.3,0.7,2.6,1.1,4.2,1.1c0.9,0,2-0.2,2.9-0.4c0.9-0.2,2.2-0.9,3.5-1.8L289.4,81.2z M274.4,71.5
					c0.4,0,1.3,0,2.4,0.2c2.4,0,4,0.2,4.9,0.2c2.2,0,3.5,0,4.2-0.2c0-0.4,0-0.7,0-0.9c0-2.4-0.4-4.4-1.5-5.5s-2.4-1.8-4-1.8
					c-1.8,0-3.3,0.7-4.4,2C274.9,66.7,274.4,68.7,274.4,71.5z"/>
			</g>
		</g>
		<g>
			<g>
				<path class="st0" d="M290.5,84.8v-1.3h2.2c0.4,0,0.7,0,0.9-0.2c0.2,0,0.2-0.2,0.4-0.4c0.2-0.2,0.2-0.9,0.2-1.8
					c0-0.2,0-2.4,0.2-6.8v-9.9c0-2.6,0-5.3-0.2-8.2c0-2-0.2-2.9-0.2-3.1s-0.2-0.2-0.4-0.4c-0.2,0-1.3-0.2-3.3-0.2V51
					c3.5-0.4,6-1.1,7.5-1.8c0.2,0,0.4-0.2,0.4-0.2h0.2v0.2c0,0,0,0.2,0,0.4v0.9c0,2.9-0.2,5.3-0.2,7.3v3.7V74c0,4.2,0.2,6.4,0.2,6.6
					c0,0.9,0,1.3,0.2,1.8c0,0.2,0.2,0.2,0.2,0.4c0.2,0,0.2,0.2,0.7,0.2c0,0,0.9,0,2.6,0v1.3c-2.2-0.2-4-0.2-5.7-0.2
					C294.9,84.6,292.9,84.8,290.5,84.8z"/>
			</g>
		</g>
		<g>
			<g>
				<path class="st0" d="M304.6,84.8v-1.3h2.2c0.4,0,0.7,0,0.9-0.2c0.2,0,0.2-0.2,0.4-0.4c0.2-0.2,0.2-0.9,0.2-1.8
					c0-0.2,0-2.4,0.2-6.8v-9.9c0-2.6,0-5.3-0.2-8.2c0-2-0.2-2.9-0.2-3.1s-0.2-0.2-0.4-0.4c-0.2,0-1.3-0.2-3.3-0.2V51
					c3.5-0.4,6-1.1,7.5-1.8c0.2,0,0.4-0.2,0.4-0.2h0.2v0.2c0,0,0,0.2,0,0.4v0.9c0,2.9-0.2,5.3-0.2,7.3v3.7V74c0,4.2,0.2,6.4,0.2,6.6
					c0,0.9,0,1.3,0.2,1.8c0,0.2,0.2,0.2,0.2,0.4c0.2,0,0.2,0.2,0.7,0.2c0,0,0.9,0,2.6,0v1.3c-2.2-0.2-4-0.2-5.7-0.2
					C309,84.6,307.1,84.8,304.6,84.8z"/>
			</g>
		</g>
		<g>
			<g>
				<path class="st0" d="M326.9,52.6V51c2.6,0.2,5.1,0.2,7.3,0.2s4.4,0,6.6-0.2v1.5c-1.8,0-3.1,0.2-3.3,0.2
					c-0.4,0.2-0.7,0.2-0.9,0.7c-0.2,0.2-0.4,1.1-0.4,2.2c0,0.2,0,2.6,0,6.8v8.8c0,3.3,0.2,5.7,0.7,6.6c0.4,1.1,1.1,2,2,2.6
					c0.7,0.4,1.8,0.9,2.9,1.3c1.3,0.2,2.6,0.4,4.2,0.4c1.8,0,3.3-0.2,4.6-0.7c1.3-0.4,2.4-0.9,3.1-1.5c0.7-0.7,1.1-1.3,1.5-2.2
					s0.7-1.8,0.7-3.1c0.2-1.3,0.2-3.1,0.2-5.1v-7.3c0-2.2,0-4.2,0-6.4c0-1.5-0.2-2.4-0.2-2.6c-0.2-0.2-0.4-0.4-0.9-0.7
					c-0.4-0.2-1.5-0.2-3.3-0.2V51c2.6,0.2,4.4,0.2,5.7,0.2c1.1,0,3.1,0,6-0.2v1.5c-2,0-3.1,0.2-3.5,0.2c-0.4,0.2-0.7,0.2-0.9,0.7
					c-0.2,0.2-0.2,1.1-0.4,2.2c0,0.2,0,2.6,0,6.8v7.9c0,4-0.2,6.6-0.9,8.2c-0.4,1.5-1.5,2.9-3.1,4.2c-1.1,0.9-2.4,1.5-4.2,2
					c-1.8,0.4-3.5,0.7-5.7,0.7c-2.4,0-4.6-0.2-6.4-0.9c-1.8-0.7-3.1-1.3-4-2.2c-0.9-0.9-1.5-2-2-2.9c-0.4-1.3-0.7-3.5-0.7-6.6V62.5
					c0-2.2,0-4.2,0-6.4c0-1.5-0.2-2.4-0.4-2.6c-0.2-0.2-0.4-0.4-0.9-0.7C329.8,52.8,328.7,52.8,326.9,52.6z"/>
			</g>
		</g>
		<g>
			<g>
				<path class="st0" d="M360.2,84.8v-1.3h2.2c0.4,0,0.7,0,0.7-0.2c0.2,0,0.2-0.2,0.4-0.4c0.2-0.2,0.2-0.9,0.4-1.8
					c0-0.2,0-2.4,0.2-6.8v-2.9c0-1.3,0-2.6,0-4.2c0-0.9-0.2-1.5-0.2-1.8c0-0.2-0.2-0.2-0.4-0.4c-0.2,0-1.3-0.2-3.1,0v-1.3
					c3.1-0.4,5.5-1.1,7.1-1.8c0.2-0.2,0.4-0.2,0.7-0.2c0.2,0,0.2,0,0.2,0.2s0,0.2,0,0.4c0,0,0,0.2,0,0.4c0,0.7,0,1.8-0.2,3.5
					l4.4-3.7c1.3-0.4,2.4-0.7,3.7-0.7c1.3,0,2.4,0.2,3.7,0.9c1.1,0.4,2,1.1,2.6,2c0.7,0.9,0.9,1.8,1.1,3.1c0,0.7,0.2,2.6,0.2,6V78
					c0,2,0,3.5,0.2,4.2c0,0.4,0.2,0.9,0.4,0.9c0.2,0.2,0.4,0.2,0.7,0.4h2.4v1.3c-1.5,0-2.9-0.2-4-0.2c-0.9,0-2.4,0-4.4,0.2
					c0.2-4,0.4-6.4,0.4-7.5v-4c0-2.4,0-4.2-0.2-4.9c-0.2-1.1-0.9-2-1.8-2.6c-0.9-0.7-2.2-0.9-3.5-0.9c-1.1,0-2.2,0.2-3.3,0.9
					c-0.9,0.7-1.8,1.1-2.2,2c-0.4,0.7-0.7,2-0.7,3.7v2.9c0,4.2,0.2,6.4,0.2,6.6c0,0.9,0.2,1.3,0.2,1.8c0,0.2,0.2,0.2,0.2,0.4
					c0.2,0,0.2,0.2,0.7,0.2c0,0,0.9,0,2.6,0v1.3c-2,0-3.7-0.2-5.3-0.2C365.3,84.8,363.1,84.8,360.2,84.8z"/>
			</g>
		</g>
		<g>
			<g>
				<path class="st0" d="M388.9,65.4V64c3.1-0.4,5.7-1.1,7.7-2l0.4,0.4c-0.2,3.3-0.2,6-0.2,7.7v4.4c0,4.2,0.2,6.4,0.2,6.6
					c0,0.9,0,1.3,0.2,1.8c0,0.2,0.2,0.2,0.2,0.4c0.2,0,0.2,0.2,0.7,0.2c0,0,0.9,0,2.6,0V85c-2.4,0-4.4-0.2-5.7-0.2
					c-1.3,0-3.3,0-6.2,0.2v-1.3h2.2c0.4,0,0.7,0,0.7-0.2c0.2,0,0.2-0.2,0.4-0.4c0.2-0.2,0.2-0.9,0.4-1.8c0-0.2,0-2.4,0.2-6.8v-4.2
					c0-2.4,0-3.7-0.2-4.2c0-0.2-0.2-0.4-0.4-0.4C391.8,65.4,390.7,65.4,388.9,65.4z M394.6,51.5c0.7,0,1.3,0.2,2,0.9
					c0.4,0.4,0.7,1.1,0.7,2c0,0.7-0.2,1.3-0.9,1.8c-0.7,0.4-1.1,0.9-1.8,0.9c-0.7,0-1.3-0.2-2-0.9s-0.9-1.1-0.9-1.8s0.2-1.3,0.9-2
					C393.3,51.7,393.7,51.5,394.6,51.5z"/>
			</g>
		</g>
		<g>
			<g>
				<path class="st0" d="M411.6,85c-0.7-1.5-1.1-2.6-1.3-3.3l-2-4.6l-4.9-11.2c-0.2-0.7-0.7-1.1-0.9-1.3s-0.4-0.4-0.7-0.4
					c-0.2,0-0.9,0-1.8-0.2v-1.3c2.6,0,4.6,0.2,5.7,0.2c1.3,0,3.1,0,5.5-0.2V64c-1.8,0-2.6,0.2-3.1,0.4s-0.4,0.4-0.4,0.7
					c0,0.4,0.2,1.5,0.9,3.1l2.9,7.3l0.7,1.5c0.9,2,1.3,3.1,1.5,3.7l2.4-5.3c0.2-0.2,0.9-2,2.2-5.3c0.7-2,1.3-3.3,1.5-4.4
					c0-0.2,0-0.4,0-0.7c0-0.2,0-0.4-0.2-0.7c-0.4-0.2-1.3-0.4-3.1-0.4v-1.3c2.4,0,4,0.2,4.6,0.2c0.7,0,2,0,4.6-0.2v1.3
					c-0.9,0-1.5,0.2-2,0.4c-0.2,0.2-0.7,0.7-0.9,1.1c-0.2,0.4-1.1,2-2.6,5.1l-2.2,4.9c-0.4,0.9-1.8,4.2-4.2,9.7
					C414,85,411.6,85,411.6,85z"/>
			</g>
		</g>
		<g>
			<g>
				<path class="st0" d="M445.6,81.2l-0.7,1.8c-1.1,0.7-2,1.1-2.4,1.3c-0.7,0.4-1.5,0.7-2.6,0.9c-0.9,0.2-2,0.4-3.1,0.4
					c-2,0-4-0.4-5.7-1.3s-3.1-2.2-4-4s-1.3-3.7-1.3-6.2c0-1.8,0.2-3.5,0.7-4.9c0.4-1.5,1.1-2.6,1.8-3.3c0.4-0.4,1.1-1.1,2.2-1.8
					c0.9-0.7,2-1.1,2.9-1.5c1.3-0.4,2.6-0.9,4-0.9c1.8,0,3.3,0.4,4.9,1.1c1.3,0.9,2.4,2,3.1,3.3s1.1,2.9,1.1,4.6c0,0.4,0,0.9,0,1.5
					c-1.1,0.2-2.2,0.4-3.1,0.4c-1.8,0.2-3.3,0.2-5.1,0.2h-7.7c0,2.2,0.4,4.2,1.1,5.5s1.8,2.4,3.1,3.1c1.3,0.7,2.6,1.1,4.2,1.1
					c0.9,0,2-0.2,2.9-0.4c0.9-0.2,2.2-0.9,3.5-1.8L445.6,81.2z M430.4,71.5c0.4,0,1.3,0,2.4,0.2c2.4,0,4,0.2,4.9,0.2
					c2.2,0,3.5,0,4.2-0.2c0-0.4,0-0.7,0-0.9c0-2.4-0.4-4.4-1.5-5.5s-2.4-1.8-4-1.8c-1.8,0-3.3,0.7-4.4,2
					C430.8,66.7,430.4,68.7,430.4,71.5z"/>
			</g>
		</g>
		<g>
			<g>
				<path class="st0" d="M447.6,84.8v-1.3c1.8,0,2.6,0,2.9,0s0.4-0.2,0.7-0.2s0.2-0.2,0.2-0.4c0.2-0.4,0.2-0.9,0.2-1.8
					c0-4.2,0.2-6.4,0.2-6.6v-2.9c0-1.3,0-2.6,0-4c0-0.9,0-1.5-0.2-1.8c0-0.2-0.2-0.2-0.4-0.4c-0.2,0-1.3-0.2-3.1,0V64
					c3.1-0.4,5.5-1.1,7.1-1.8c0.2-0.2,0.4-0.2,0.7-0.2s0.2,0,0.2,0.2s0,0.2,0,0.4c0,0,0,0.2,0,0.4c0,0.9-0.2,2.4-0.2,4.4
					c0.7-0.9,1.3-1.5,2-2.4s1.1-1.3,1.3-1.5c0.4-0.4,1.1-0.7,1.5-0.9c0.7-0.2,1.3-0.4,2-0.4s1.3,0.2,2,0.4l0.2,0.4
					c-0.2,2.2-0.4,4-0.4,5.5h-1.1c-0.4-0.7-0.9-1.3-1.3-1.8c-0.4-0.4-1.1-0.4-1.8-0.4c-1.3,0-2.2,0.4-3.1,1.5s-1.3,2.4-1.3,4.4v2.4
					c0,1.1,0,2.9,0.2,5.7c0,0.9,0,1.5,0.2,1.8c0.2,0.2,0.2,0.4,0.2,0.7c0,0.2,0.2,0.2,0.4,0.2c0.4,0.2,1.8,0.2,3.7,0.4V85
					c-2.9,0-5.1-0.2-7.1-0.2C451.3,84.8,449.5,84.8,447.6,84.8z"/>
			</g>
		</g>
		<g>
			<g>
				<path class="st0" d="M466.8,77.7h1.3c0,0.9,0,1.5,0.2,2.2s0.2,1.1,0.4,1.5c0.2,0.4,0.4,0.9,0.9,1.3c0.4,0.4,0.9,0.7,1.3,0.9
					s0.9,0.2,1.3,0.4c0.4,0,1.1,0,2.2,0c1.5,0,2.9-0.4,4-1.3s1.5-2,1.5-3.5c0-0.7-0.2-1.3-0.4-1.8c-0.2-0.4-0.9-0.9-1.3-1.1
					c-0.7-0.2-2-0.7-4-1.1s-3.3-0.9-4-1.1c-0.9-0.4-1.5-0.7-2.2-1.1s-0.9-1.1-1.3-1.8c-0.2-0.7-0.4-1.5-0.4-2.4
					c0-1.3,0.2-2.4,0.9-3.5c0.7-1.1,1.8-2,3.1-2.6c1.3-0.7,2.9-0.9,4.6-0.9c1.1,0,2.2,0.2,3.5,0.4s2.4,0.7,3.3,1.1
					c0,1.8-0.2,3.5-0.2,5.3h-1.3c0-1.1-0.2-2-0.2-2.2c0-0.4-0.2-0.7-0.4-0.9s-0.4-0.7-0.9-0.9s-0.9-0.7-1.5-0.9
					c-0.7-0.2-1.5-0.4-2.4-0.4c-1.3,0-2.4,0.4-3.3,1.3s-1.3,1.8-1.3,2.9c0,0.7,0.2,1.1,0.4,1.5c0.2,0.4,0.7,0.9,0.9,1.1
					c0.4,0.2,0.9,0.4,1.8,0.7l4,0.9c2,0.4,3.3,0.9,4.2,1.3c0.7,0.4,1.3,0.9,1.8,1.8c0.4,0.7,0.7,1.8,0.7,2.9c0,2.2-0.9,4-2.6,5.5
					c-1.8,1.5-4.2,2.4-7.1,2.4c-1.3,0-3.1-0.2-5.5-0.7c-1.3-0.2-2-0.4-2-0.4v-0.2c0,0,0-0.2,0-0.4c0.2-0.7,0.2-1.3,0.2-2
					C466.8,81.2,466.8,79.7,466.8,77.7z"/>
			</g>
		</g>
		<g>
			<g>
				<path class="st0" d="M485.7,65.4V64c3.1-0.4,5.7-1.1,7.7-2l0.4,0.4c-0.2,3.3-0.2,6-0.2,7.7v4.4c0,4.2,0.2,6.4,0.2,6.6
					c0,0.9,0,1.3,0.2,1.8c0,0.2,0.2,0.2,0.2,0.4c0.2,0,0.2,0.2,0.7,0.2c0,0,0.9,0,2.6,0V85c-2.4,0-4.4-0.2-5.7-0.2
					c-1.3,0-3.3,0-6.2,0.2v-1.3h2.2c0.4,0,0.7,0,0.7-0.2c0.2,0,0.2-0.2,0.4-0.4c0.2-0.2,0.2-0.9,0.4-1.8c0-0.2,0-2.4,0.2-6.8v-4.2
					c0-2.4,0-3.7-0.2-4.2c0-0.2-0.2-0.4-0.4-0.4C488.6,65.4,487.7,65.4,485.7,65.4z M491.5,51.5c0.7,0,1.3,0.2,2,0.9
					c0.4,0.4,0.7,1.1,0.7,2c0,0.7-0.2,1.3-0.9,1.8s-1.1,0.9-1.8,0.9s-1.3-0.2-2-0.9s-0.9-1.1-0.9-1.8s0.2-1.3,0.9-2
					S490.8,51.5,491.5,51.5z"/>
			</g>
		</g>
		<g>
			<g>
				<path class="st0" d="M498.7,66.2v-1.1c1.5-0.7,2.9-1.1,3.7-1.5c0-3.7,0-6.2-0.2-7.3c1.5-0.7,2.9-1.1,4-1.8l0.7,0.4
					c-0.2,1.3-0.4,4.2-0.7,8.6c1.3,0,2,0,2.2,0s0.9,0,2.4,0c0.9,0,1.5,0,1.8,0l0.2,0.2l-0.4,2.2c-1.1,0-2,0-2.6,0c-0.7,0-2,0-3.5,0
					l-0.2,9.7c0,2.4,0,3.7,0,4.2s0.2,0.9,0.4,1.1c0.2,0.4,0.4,0.7,0.9,0.9c0.4,0.2,0.9,0.4,1.8,0.4c0.7,0,1.1,0,1.5,0
					s0.9-0.2,1.5-0.4l0.2,0.9c-0.7,0.7-1.5,1.1-2.2,1.8c-0.7,0.2-1.1,0.4-1.8,0.4c-0.4,0-1.1,0-1.8,0c-0.9,0-1.5,0-2-0.2
					c-0.4-0.2-0.9-0.4-1.3-0.9s-0.7-0.7-1.1-1.3c-0.4-0.7-0.4-1.3-0.4-2.4s0-2.2,0-3.5c0-0.2,0-0.4,0-0.9V66h-0.9
					C500.7,66,499.8,66.2,498.7,66.2z"/>
			</g>
		</g>
		<g>
			<g>
				<path class="st0" d="M514.6,97.6l1.1-3.7h0.7c0.2,0.2,0.7,0.4,0.7,0.7c0.2,0.2,0.4,0.2,0.7,0.4c0.2,0,0.7,0.2,1.1,0.2
					c0.4,0,0.9,0,1.3-0.2c0.4-0.2,0.9-0.4,1.3-1.1c0.4-0.4,0.9-1.3,1.3-2.4c0.9-1.8,1.5-3.3,2.2-5.1c-0.4-1.3-1.1-3.1-1.8-4.9
					l-3.7-9.3c-1.1-2.9-2-4.9-2.6-6.4c-0.2-0.7-0.7-0.9-0.9-1.1s-1.1-0.4-2.2-0.4V63c2,0,4,0.2,5.7,0.2s3.7,0,5.3-0.2v0.9
					c-1.5,0-2.6,0.2-2.9,0.2c-0.4,0.2-0.7,0.4-0.7,0.9c0,0.2,0.2,0.9,0.4,1.5c0.7,2,1.1,3.5,1.8,5.1l1.5,3.7c0.9,2.2,1.8,4,2.2,5.3
					l1.3-2.9c0.4-1.1,1.3-3.3,2.6-6.4s2-5.1,2.2-5.7c0-0.2,0-0.4,0-0.7c0-0.2-0.2-0.4-0.4-0.7c-0.2-0.2-1.1-0.2-2.9-0.4v-1.5
					c1.8,0,3.5,0.2,4.9,0.2c1.3,0,2.9,0,4.2-0.2l-0.2,1.5c-0.9,0-1.3,0.2-1.8,0.4c-0.4,0.2-1.1,1.3-2,3.1s-2.6,5.3-5.1,10.6
					l-5.5,12.8c-0.9,2-1.5,3.5-2.2,4.4s-1.3,1.5-2.4,2c-0.9,0.4-2,0.7-2.9,0.7c-0.4,0-0.9,0-1.3-0.2C515.5,98,515.1,97.8,514.6,97.6
					z"/>
			</g>
		</g>
	</g>
	<g>
		<g>
			<g>
				<g>
					<g>
						<g>
							<g>
								<g>
									<path class="st0" d="M10.8,69.3c2.9,0,4.6-1.8,4.8-5.1c0-0.6,0-1.4-0.1-2.2v-0.2h-2.4l0.2,0.5c0.1,0.4,0.2,1.2,0.2,1.8
										c-0.1,1.6-1.4,2.7-3.1,2.5c-1.8-0.1-2.9-1.3-2.9-2.9c0-0.6,0.1-1.2,0.6-1.7l0.4-0.5l-2.3-0.4L6,61.4
										c-0.4,0.7-0.5,1.5-0.6,2.2c-0.2,3.3,1.6,5.5,5,5.6C10.5,69.3,10.6,69.3,10.8,69.3z"/>
								</g>
							</g>
						</g>
					</g>
				</g>
				<g>
					<g>
						<g>
							<g>
								<g>
									<path class="st0" d="M11.2,58c0.7,0.2,1.3,0.2,1.8,0.2c2.2,0,3.8-1.3,4.5-3.5c0.4-1.4,0.2-2.5-0.4-3.7
										c-0.7-1.2-1.8-1.9-3.3-2.4c-0.6-0.2-1.3-0.2-1.7-0.2c-2.2,0-3.8,1.3-4.5,3.5C6.7,54.8,8.1,57.1,11.2,58z M9.6,52.6
										c0.4-1.3,1.4-1.5,2.2-1.5c0.4,0,0.8,0.1,1.3,0.2c1,0.4,1.8,0.8,2.2,1.5c0.2,0.5,0.4,0.9,0.1,1.5c-0.4,1.3-1.4,1.5-2.2,1.5
										c-0.5,0-0.8-0.1-1.3-0.2C10.5,55.2,9.1,54.1,9.6,52.6z"/>
								</g>
							</g>
						</g>
					</g>
				</g>
				<g>
					<g>
						<g>
							<g>
								<g>
									<path class="st0" d="M21.1,45.1l-3.3-1.8l0.1-0.2c0.4-0.6,0.6-0.6,1-0.5l3.3,0.5l1.3-2.4l-4.4-0.5c-0.4,0-0.6,0-0.8,0
										c0-0.9-0.5-1.8-1.4-2.3c-0.5-0.2-0.9-0.4-1.4-0.4c-1.6,0-2.4,1.6-3.2,3.1l-1.2,2.2l8.7,4.7L21.1,45.1z M15.9,42l-0.1,0.2
										l-1.6-0.8l0.1-0.2c0.4-0.7,0.8-1.4,1.5-1c0.2,0.1,0.4,0.2,0.5,0.5C16.3,41.1,16.1,41.7,15.9,42z"/>
								</g>
							</g>
						</g>
					</g>
				</g>
				<g>
					<g>
						<g>
							<g>
								<g>
									<polygon class="st0" points="26.5,36.4 22,32.7 28.4,34.2 30.1,32 22.6,25.7 20.9,27.6 25.5,31.3 19.1,29.9 17.3,32 
										25,38.3 									"/>
								</g>
							</g>
						</g>
					</g>
				</g>
				<g>
					<g>
						<g>
							<g>
								<g>
									<polygon class="st0" points="37.6,25.7 36.3,24.1 33.5,26.3 32.2,24.8 34.7,22.7 33.4,21.1 30.9,23.2 29.9,21.9 32.7,19.7 
										31.3,18 26.6,21.8 32.8,29.5 									"/>
								</g>
							</g>
						</g>
					</g>
				</g>
				<g>
					<g>
						<g>
							<g>
								<g>
									<polygon class="st0" points="45.8,20.8 44.8,18.9 41.7,20.7 37.9,13.9 35.7,15.1 40.5,23.7 									"/>
								</g>
							</g>
						</g>
					</g>
				</g>
				<g>
					<g>
						<g>
							<g>
								<g>
									<polygon class="st0" points="54.2,17.5 53.4,15.6 50.2,16.7 47.6,9.5 45.1,10.3 48.4,19.6 									"/>
								</g>
							</g>
						</g>
					</g>
				</g>
				<g>
					<g>
						<g>
							<g>
								<g>
									<path class="st0" d="M64.2,15.9c0.2,0,0.4,0,0.6,0c1.4-0.1,2.4-0.6,3-1.3s0.8-1.7,0.7-2.9L68,5.5l-2.5,0.1l0.5,5.6
										c0.1,1.9-0.7,2.3-1.4,2.4c-0.1,0-0.1,0-0.2,0c-0.6,0-1.4-0.2-1.6-2.2l-0.5-5.6L59.8,6l0.5,6.2
										C60.6,14.6,61.9,15.9,64.2,15.9z"/>
								</g>
							</g>
						</g>
					</g>
				</g>
				<g>
					<g>
						<g>
							<g>
								<g>
									<polygon class="st0" points="75.6,10 77.7,16.2 80.6,16.6 81.8,6.7 79.4,6.4 78.6,12.2 76.5,6 73.8,5.7 72.4,15.5 
										74.8,15.8 									"/>
								</g>
							</g>
						</g>
					</g>
				</g>
				<g>
					<g>
						<g>
							<g>
								<g>
									<polygon class="st0" points="89.3,8.9 86.9,8.1 83.9,17.5 86.3,18.4 									"/>
								</g>
							</g>
						</g>
					</g>
				</g>
				<g>
					<g>
						<g>
							<g>
								<g>
									<polygon class="st0" points="101.7,14.4 99.5,13.3 94.7,18.2 95.7,11.5 93.3,10.1 91.8,20.7 94.4,21.8 									"/>
								</g>
							</g>
						</g>
					</g>
				</g>
				<g>
					<g>
						<g>
							<g>
								<g>
									<polygon class="st0" points="104.2,28.7 105.5,27 102.8,24.8 103.9,23.3 106.4,25.3 107.8,23.5 105.3,21.5 106.2,20.3 
										108.9,22.5 110.4,20.8 105.5,17 99.4,24.9 									"/>
								</g>
							</g>
						</g>
					</g>
				</g>
				<g>
					<g>
						<g>
							<g>
								<g>
									<path class="st0" d="M108.4,32.8l2.9-2.5l0.1,0.2c0.4,0.5,0.4,0.6,0.1,1.2l-1.6,3l1.8,2.1l1.9-3.9c0.1-0.1,0.2-0.5,0.2-0.8
										c0.8,0.4,1.8,0.2,2.7-0.5c2.2-1.8,0.5-3.8-0.8-5.3l-1.6-1.8l-7.5,6.5L108.4,32.8z M114.3,27.7l0.1,0.2
										c0.4,0.5,0.7,0.9,0.7,1.3c0,0.2-0.1,0.4-0.4,0.5c-0.1,0.2-0.4,0.2-0.5,0.2c-0.5,0-0.9-0.5-1.2-0.8l-0.1-0.2L114.3,27.7z"/>
								</g>
							</g>
						</g>
					</g>
				</g>
				<g>
					<g>
						<g>
							<g>
								<g>
									<path class="st0" d="M117.6,40.8c-0.5,0.4-1.2-0.2-1.4-0.7c-0.4-0.6-0.5-1.2-0.5-1.9v-0.6l-2.3,1l0.1,0.5
										c0.2,0.8,0.4,1.3,0.8,2.1c0.8,1.4,1.8,2.1,3,2.1c0.6,0,1-0.1,1.6-0.5c1.7-1,1.5-2.7,1.3-3.9c-0.1-0.8-0.2-1.4,0.1-1.6
										c0.2-0.1,0.4-0.1,0.5-0.1c0.5,0,0.8,0.5,0.9,0.6c0.4,0.5,0.5,1,0.6,1.6l0.1,0.5l2.1-0.9v-0.2c-0.1-0.7-0.5-1.4-0.9-2.2
										c-1-1.8-2.9-2.4-4.5-1.4c-1.7,1-1.5,2.7-1.3,3.8C117.9,39.9,118,40.5,117.6,40.8z"/>
								</g>
							</g>
						</g>
					</g>
				</g>
				<g>
					<g>
						<g>
							<g>
								<g>
									
										<rect x="117.9" y="45.5" transform="matrix(0.9259 -0.3777 0.3777 0.9259 -8.5607 49.8653)" class="st0" width="9.9" height="2.5"/>
								</g>
							</g>
						</g>
					</g>
				</g>
				<g>
					<g>
						<g>
							<g>
								<g>
									<polygon class="st0" points="127.9,53.1 120.4,54.9 121,57.3 128.7,55.5 129.2,58 131.3,57.6 129.4,50 127.3,50.6 
																			"/>
								</g>
							</g>
						</g>
					</g>
				</g>
				<g>
					<g>
						<g>
							<g>
								<g>
									<polygon class="st0" points="122.1,64.6 122.2,67.1 126.1,66.9 132.3,70.1 132.2,67.3 128.5,65.6 131.9,63.4 131.7,60.4 
										126,64.5 									"/>
								</g>
							</g>
						</g>
					</g>
				</g>
				<g>
					<g>
						<g>
							<g>
								<g>
									<polygon class="st0" points="12.7,87.8 14.8,87.2 13.9,84.2 15.5,83.8 16.3,87 18.4,86.3 16.8,80.8 7.3,83.6 8,86 
										11.9,84.8 									"/>
								</g>
							</g>
						</g>
					</g>
				</g>
				<g>
					<g>
						<g>
							<g>
								<g>
									<path class="st0" d="M21.5,96.1c0.4-1.2,0.2-2.4-0.4-3.7c-0.9-1.8-2.3-2.8-4.1-2.8c-0.8,0-1.7,0.2-2.7,0.7
										c-1.5,0.7-2.4,1.7-2.9,3c-0.4,1.2-0.2,2.4,0.4,3.7c0.9,1.7,2.3,2.8,4.1,2.8c0.8,0,1.7-0.2,2.7-0.7
										C20.2,98.3,21.2,97.4,21.5,96.1z M17.7,96.7c-0.6,0.4-1.3,0.5-1.8,0.5c-0.9,0-1.5-0.4-1.8-1.2c-0.2-0.6-0.4-1-0.1-1.5
										c0.2-0.7,0.9-1.4,1.8-1.8c0.6-0.2,1.2-0.5,1.7-0.5c0.9,0,1.5,0.4,1.8,1.2c0.2,0.6,0.4,1,0.1,1.5
										C19.1,95.5,18.5,96.2,17.7,96.7z"/>
								</g>
							</g>
						</g>
					</g>
				</g>
				<g>
					<g>
						<g>
							<g>
								<g>
									<path class="st0" d="M28.4,103.8l-4.5,3.6c-1.2,0.9-2.1,1-2.8,0.2c-0.2-0.4-0.4-0.7-0.4-1c0.1-0.5,0.5-1,1.2-1.6l4.5-3.6
										l-1.6-1.9l-5,3.9c-1,0.8-1.6,1.7-1.6,2.8c0,0.9,0.4,1.8,1.2,2.9c0.9,1.3,1.9,1.8,3.1,1.8c0.8,0,1.6-0.4,2.4-1l5-4
										L28.4,103.8z"/>
								</g>
							</g>
						</g>
					</g>
				</g>
				<g>
					<g>
						<g>
							<g>
								<g>
									<polygon class="st0" points="36.8,111.8 33.2,116.4 34.5,110 32.3,108.2 26,115.9 28,117.5 31.7,112.9 30.3,119.3 
										32.4,121.1 38.8,113.5 									"/>
								</g>
							</g>
						</g>
					</g>
				</g>
				<g>
					<g>
						<g>
							<g>
								<g>
									<path class="st0" d="M44.2,116.5l-2.5-1.3l-4.5,8.8l2.5,1.3c1.3,0.6,2.3,0.9,3.3,0.9c1.7,0,3.1-0.9,4-2.8
										C48.6,120.6,47.6,118.3,44.2,116.5z M44.7,122.5c-0.5,1-1.4,1.6-2.4,1.6c-0.5,0-0.8-0.1-1.3-0.4l-0.6-0.4l2.5-5.1l0.6,0.4
										c0.7,0.4,1.2,0.9,1.4,1.5C45.1,120.9,45,121.6,44.7,122.5z"/>
								</g>
							</g>
						</g>
					</g>
				</g>
				<g>
					<g>
						<g>
							<g>
								<g>
									<polygon class="st0" points="49.7,129.7 55.6,131.3 56.2,129.2 52.7,128.3 53.2,126.5 56.4,127.3 57,125.2 53.7,124.4 
										54.1,122.8 57.6,123.7 58.1,121.6 52.3,120.2 									"/>
								</g>
							</g>
						</g>
					</g>
				</g>
				<g>
					<g>
						<g>
							<g>
								<g>
									<path class="st0" d="M64.3,122.5l-2.9-0.1l-0.6,9.9l2.9,0.1c0.2,0,0.5,0,0.7,0c3.3,0,5.1-1.6,5.3-4.7
										c0.1-1.5-0.2-2.8-1-3.7C67.8,123.1,66.4,122.6,64.3,122.5z M64.2,130.2h-0.7l0.4-5.6h0.7c1.4,0.1,2.7,1.2,2.5,3
										C67,129.5,65.6,130.2,64.2,130.2z"/>
								</g>
							</g>
						</g>
					</g>
				</g>
				<g>
					<g>
						<g>
							<g>
								<g>
									<path class="st0" d="M78.5,121.6l-1.7,10.5l2.7-0.6l0.4-2.2l3.2-0.7l1.3,1.9L87,130l-5.9-8.8L78.5,121.6z M80.1,127.2
										l0.4-2.7l1.4,2.2L80.1,127.2z"/>
								</g>
							</g>
						</g>
					</g>
				</g>
				<g>
					<g>
						<g>
							<g>
								<g>
									<polygon class="st0" points="87.9,126.8 88.8,129.2 91.1,128.3 90.3,126 									"/>
								</g>
							</g>
						</g>
					</g>
				</g>
				<g>
					<g>
						<g>
							<g>
								<g>
									<path class="st0" d="M92.7,116.8l-2.5,1.4l4.7,8.7l2.5-1.4c3.3-1.8,4.1-4.1,2.7-7C98.6,115.6,96.1,115,92.7,116.8z
										 M96.8,123.4l-0.6,0.4l-2.7-5l0.6-0.4c0.4-0.2,0.8-0.4,1.3-0.4c1,0,1.8,0.6,2.4,1.5C98.7,121.3,97.9,122.8,96.8,123.4z"/>
								</g>
							</g>
						</g>
					</g>
				</g>
				<g>
					<g>
						<g>
							<g>
								<g>
									<polygon class="st0" points="102,119.9 103.5,122 105.5,120.5 104.1,118.4 									"/>
								</g>
							</g>
						</g>
					</g>
				</g>
				<g>
					<g>
						<g>
							<g>
								<g>
									<polygon class="st0" points="106,107.1 105.5,111.1 107.7,111.4 107.9,109.8 112.7,114.5 114.5,112.8 107.5,105.6 
																			"/>
								</g>
							</g>
						</g>
					</g>
				</g>
				<g>
					<g>
						<g>
							<g>
								<g>
									<path class="st0" d="M119.5,102c-0.8-0.6-1.7-0.7-2.8-0.4c0-0.9-0.5-1.8-1.2-2.3c-1.3-0.9-2.9-0.4-4.1,1.3
										c-1.2,1.6-1,3.2,0.4,4.2c0.7,0.5,1.6,0.6,2.4,0.4c-0.1,1,0.2,1.8,1,2.4c0.6,0.5,1.2,0.6,1.7,0.6c1,0,1.9-0.6,2.9-1.7
										c0.7-0.9,1-1.8,0.9-2.8C120.6,103.1,120.1,102.5,119.5,102z M114.7,102.6c-0.4,0.2-0.7,0.5-1,0.5c-0.1,0-0.4,0-0.5-0.1
										c-0.5-0.4-0.2-0.9,0-1.3c0.1-0.2,0.4-0.4,0.6-0.4c0.1,0,0.4,0.1,0.6,0.2C114.7,101.9,114.8,102.3,114.7,102.6z
										 M118.1,105.4c-0.4,0.5-0.9,0.6-1.4,0.2c-0.4-0.4-0.6-0.7-0.5-1.4c0.7-0.5,1.3-0.6,1.7-0.2c0.2,0.1,0.4,0.4,0.4,0.6
										C118.4,104.8,118.3,105.2,118.1,105.4z"/>
								</g>
							</g>
						</g>
					</g>
				</g>
				<g>
					<g>
						<g>
							<g>
								<g>
									<path class="st0" d="M123.9,92.3c-1.7-0.8-3.3-0.4-4.1,1.3c-0.2,0.5-0.4,0.9-0.2,1.4c-0.6-0.5-1.2-1.3-0.7-2.3
										c0.2-0.5,0.6-0.8,0.9-1.2l0.4-0.2l-1.8-1.3l-0.2,0.2c-0.5,0.5-0.9,1-1.3,1.7c-0.5,1-0.6,1.9-0.2,2.9
										c0.6,1.6,2.2,2.8,3.5,3.3c1.2,0.6,2.1,0.8,2.9,0.8c1.3,0,2.2-0.6,2.9-1.8C126.7,95.1,126,93.3,123.9,92.3z M123.9,96
										c-0.1,0.4-0.5,0.5-0.8,0.5c-0.2,0-0.6-0.1-0.8-0.2c-0.5-0.2-0.8-0.6-0.9-0.8c-0.1-0.2,0-0.4,0-0.6c0.1-0.4,0.4-0.5,0.8-0.5
										c0.2,0,0.6,0.1,0.9,0.2c0.5,0.2,0.7,0.5,0.8,0.8C124.1,95.6,123.9,95.8,123.9,96z"/>
								</g>
							</g>
						</g>
					</g>
				</g>
				<g>
					<g>
						<g>
							<g>
								<g>
									<path class="st0" d="M127.5,82.2c-1.9-0.6-3.6,0.4-4.1,2.2c0,0.2-0.1,0.4-0.1,0.5l-1.2-0.4l1-3.5l-1.9-0.6l-1.7,5.8
										l5.5,1.7v-0.5c0-0.6,0.1-1,0.2-1.6c0.1-0.5,0.7-1.6,1.7-1.4c1.2,0.4,0.9,1.6,0.8,1.9c-0.2,0.7-0.6,1.2-0.9,1.6l-0.4,0.4
										l2.3,0.8l0.1-0.2c0.4-0.7,0.7-1.5,0.9-2.1c0.4-1.2,0.4-2.2-0.1-3.1C129.2,83.1,128.4,82.5,127.5,82.2z"/>
								</g>
							</g>
						</g>
					</g>
				</g>
			</g>
			<g>
				<g>
					<g>
						<g>
							<g>
								<path class="st0" d="M54.7,58.1l-0.5-0.3c-2.8-1.5-7.5-4.3-7.5-6.4V40.6H63v11c0,1.8-4.3,4.4-7.8,6.3L54.7,58.1z M48.7,47.6
									v3.9c0.2,0.7,2.9,2.7,6,4.3c3.2-1.7,6-3.6,6.3-4.3v-3.9H48.7z M48.7,45.6H61v-3.1H48.7V45.6z"/>
							</g>
						</g>
					</g>
				</g>
			</g>
			<g>
				<g>
					<g>
						<g>
							<g>
								<path class="st0" d="M68.8,137.4c-37.9,0-68.7-30.8-68.7-68.7S31,0.1,68.8,0.1s68.7,30.8,68.7,68.7S106.7,137.4,68.8,137.4z
									 M68.8,2.1C32.1,2.1,2.2,32,2.2,68.8s29.9,66.7,66.7,66.7s66.7-29.9,66.7-66.7S105.6,2.1,68.8,2.1z"/>
							</g>
						</g>
					</g>
				</g>
			</g>
			<g>
				<g>
					<g>
						<g>
							<g>
								<path class="st0" d="M68.8,118.9c-27.7,0-50.1-22.5-50.1-50.1s22.5-50.1,50.1-50.1S119,41.1,119,68.8
									C119,96.4,96.5,118.9,68.8,118.9z M68.8,20.6c-26.6,0-48.2,21.6-48.2,48.2S42.2,117,68.8,117S117,95.3,117,68.8
									S95.4,20.6,68.8,20.6z"/>
							</g>
						</g>
					</g>
				</g>
			</g>
			<g>
				<g>
					<g>
						<g>
							<g>
								<path class="st1" d="M68.8,44.7"/>
							</g>
						</g>
					</g>
				</g>
			</g>
			<g>
				<g>
					<g>
						<g>
							<g>
								<path class="st0" d="M82.9,58.1l-0.5-0.3c-2.9-1.5-7.7-4.3-7.7-6.4V40.6H91v11c0,1.5-2.6,3.6-7.7,6.3L82.9,58.1z M76.7,51.5
									c0.3,0.7,3,2.7,6.2,4.4c3.1-1.7,5.8-3.6,6.2-4.3v-1.4l-6.2-4l-6.2,4V51.5z M89,51.5L89,51.5L89,51.5z M82.9,43.7l6.2,4v-5.2
									H76.7v5.2L82.9,43.7z"/>
							</g>
						</g>
					</g>
				</g>
			</g>
			<g>
				<g>
					<g>
						<g>
							<g>
								
									<rect x="58.4" y="74.3" transform="matrix(0.999 -4.549858e-02 4.549858e-02 0.999 -3.3689 2.8923)" class="st0" width="6.9" height="2.3"/>
							</g>
						</g>
					</g>
				</g>
			</g>
			<g>
				<g>
					<g>
						<g>
							<g>
								
									<rect x="58.4" y="80.6" transform="matrix(0.999 -4.527980e-02 4.527980e-02 0.999 -3.6383 2.8844)" class="st0" width="6.9" height="2.3"/>
							</g>
						</g>
					</g>
				</g>
			</g>
			<g>
				<g>
					<g>
						<g>
							<g>
								
									<rect x="58.4" y="87" transform="matrix(0.999 -4.527980e-02 4.527980e-02 0.999 -3.928 2.8911)" class="st0" width="6.9" height="2.3"/>
							</g>
						</g>
					</g>
				</g>
			</g>
			<g>
				<g>
					<g>
						<g>
							<g>
								<rect x="50.5" y="75.5" class="st0" width="3.9" height="3.2"/>
							</g>
						</g>
					</g>
				</g>
			</g>
			<g>
				<g>
					<g>
						<g>
							<g>
								<rect x="50.5" y="84.6" class="st0" width="3.9" height="3.2"/>
							</g>
						</g>
					</g>
				</g>
			</g>
			<g>
				<g>
					<g>
						<g>
							<g>
								<path class="st0" d="M67.9,94.6c-0.1-0.1-1.4-1-2.2-0.9c-4.1,0.7-10.8,0.5-11.1,0.5h-1V69.4l1.1,0.1c0.1,0,5.3,0.6,10-0.3
									c1.6-0.4,3.3,0,4.1,0.3c0.8-0.3,2.7-0.7,4.3-0.3c4.7,0.8,9.9,0.3,10,0.3l1.1-0.1v24.8h-1c-0.3,0-7.2,0.2-11.3-0.5
									c-0.9-0.2-2,0.7-2.3,0.9l-0.8,0.6L67.9,94.6z M66.1,91.7c1.2-0.1,2,0.5,2.6,0.9c0.7-0.5,2.2-1.2,3.6-0.9
									c3,0.5,7.8,0.5,9.9,0.5V71.6c-1.9,0.2-5.8,0.3-9.5-0.4h-0.1c-1.5-0.4-3.5,0.3-3.5,0.3l-0.5,0.1h-0.1c0,0-1.9-0.8-3.4-0.4H65
									c-3.7,0.7-7.6,0.5-9.5,0.4v20.6c2,0,6.8,0,9.9-0.5C65.9,91.7,65.9,91.7,66.1,91.7z"/>
							</g>
						</g>
					</g>
				</g>
			</g>
			<g>
				<g>
					<g>
						<g>
							<g>
								
									<rect x="74.8" y="78.3" transform="matrix(4.537265e-02 -0.999 0.999 4.537265e-02 -9.145 153.9183)" class="st0" width="2.3" height="6.9"/>
							</g>
						</g>
					</g>
				</g>
			</g>
			<g>
				<g>
					<g>
						<g>
							<g>
								
									<rect x="74.9" y="84.6" transform="matrix(4.537265e-02 -0.999 0.999 4.537265e-02 -15.4006 160.0314)" class="st0" width="2.3" height="6.9"/>
							</g>
						</g>
					</g>
				</g>
			</g>
			<g>
				<g>
					<g>
						<g>
							<g>
								<rect x="83.5" y="75.5" class="st0" width="3.7" height="3.2"/>
							</g>
						</g>
					</g>
				</g>
			</g>
			<g>
				<g>
					<g>
						<g>
							<g>
								<rect x="83.5" y="84.6" class="st0" width="3.7" height="3.2"/>
							</g>
						</g>
					</g>
				</g>
			</g>
			<g>
				<g>
					<g>
						<g>
							<g>
								
									<rect x="74.8" y="72.1" transform="matrix(3.784732e-02 -0.9993 0.9993 3.784732e-02 -2.3626 148.5899)" class="st0" width="2.3" height="6.9"/>
							</g>
						</g>
					</g>
				</g>
			</g>
		</g>
		<g>
			<g>
				<g>
					<g>
						<g>
							<path class="st0" d="M68.7,114.5l-0.4-0.2c-0.3-0.2-7.8-3.5-15.4-9.4c-10.3-7.9-15.8-16.6-16-25.2C37.3,61.4,37,37.1,37,36.8
								v-1h63.8v1c0,0.3-0.1,24.9-0.1,42.9c0,8.6-5.5,17.3-15.9,25.2c-7.7,5.9-15.4,9.3-15.7,9.4L68.7,114.5z M69.7,62.7v49.1
								c6-2.9,28.9-15.3,28.9-32.2c0-5.3,0-11.3,0-17L69.7,62.7L69.7,62.7z M39.1,62.7c0,5.7-0.1,11.6-0.2,17
								c0.2,9.9,8.4,18.4,15.2,23.6c5.5,4.3,11.1,7.3,13.6,8.5V62.7H39.1z M39.1,60.7h59.6c0-10.5,0.1-19.9,0.1-23H39
								C39,40.8,39.1,50.1,39.1,60.7z"/>
						</g>
					</g>
				</g>
			</g>
		</g>
	</g>
</g>
</svg>
